<?xml version="1.0" standalone="no"?>
<!DOCTYPE svg PUBLIC "-//W3C//DTD SVG 20010904//EN"
 "http://www.w3.org/TR/2001/REC-SVG-20010904/DTD/svg10.dtd">
<svg version="1.0" xmlns="http://www.w3.org/2000/svg"
 width="2667.000000pt" height="2126.000000pt" viewBox="0 0 2667.000000 2126.000000"
 preserveAspectRatio="xMidYMid meet">
<metadata>
Created by potrace 1.16, written by Peter Selinger 2001-2019
</metadata>
<g transform="translate(0.000000,2126.000000) scale(0.100000,-0.100000)"
fill="#000000" stroke="none">
<path d="M0 10630 l0 -10630 13335 0 13335 0 0 10630 0 10630 -13335 0 -13335
0 0 -10630z m20181 8858 c444 -70 800 -190 1152 -387 463 -259 851 -619 1139
-1058 266 -405 423 -825 505 -1350 16 -100 18 -580 21 -6843 2 -4852 0 -6771
-8 -6864 -81 -947 -590 -1830 -1370 -2377 -447 -313 -929 -497 -1495 -571
-148 -19 -13592 -19 -13740 0 -389 51 -714 147 -1050 312 -374 183 -690 417
-961 711 -452 489 -722 1053 -836 1744 l-23 140 -3 6735 c-2 4768 0 6772 8
6862 45 531 224 1049 515 1493 452 691 1136 1181 1922 1378 154 39 342 73 478
86 50 4 3137 8 6865 7 6281 -2 6783 -3 6881 -18z"/>
<path d="M5500 17853 c-664 -68 -1083 -364 -1221 -863 -50 -183 -52 -482 -5
-665 58 -223 172 -395 351 -530 237 -178 499 -282 1010 -400 330 -77 446 -109
564 -159 249 -105 382 -240 438 -447 24 -88 24 -316 0 -413 -37 -147 -105
-267 -212 -371 -85 -83 -187 -143 -310 -183 -145 -47 -220 -57 -435 -56 -216
0 -327 17 -481 74 -222 81 -465 262 -634 474 -33 41 -63 75 -66 75 -5 1 -68
-50 -277 -227 l-122 -104 40 -51 c214 -271 492 -482 792 -601 371 -147 965
-160 1363 -31 183 60 389 177 517 295 189 173 320 436 365 730 19 126 13 386
-11 495 -92 415 -347 675 -831 850 -132 48 -259 82 -580 155 -148 34 -323 79
-387 101 -432 140 -597 325 -598 667 0 229 83 418 233 529 177 130 378 185
677 184 311 0 508 -54 725 -197 86 -57 255 -213 326 -302 l34 -43 198 145
c109 80 198 148 198 153 -1 16 -95 135 -168 213 -277 294 -630 460 -1068 500
-103 9 -346 11 -425 3z"/>
<path d="M16580 17853 c-664 -68 -1083 -364 -1221 -863 -50 -183 -52 -482 -5
-665 58 -223 172 -395 351 -530 237 -178 499 -282 1010 -400 330 -77 446 -109
564 -159 249 -105 382 -240 438 -447 24 -88 24 -316 0 -413 -37 -147 -105
-267 -212 -371 -85 -83 -187 -143 -310 -183 -145 -47 -220 -57 -435 -56 -216
0 -327 17 -481 74 -222 81 -465 262 -634 474 -33 41 -63 75 -66 75 -5 1 -68
-50 -277 -227 l-122 -104 40 -51 c214 -271 492 -482 792 -601 371 -147 965
-160 1363 -31 183 60 389 177 517 295 189 173 320 436 365 730 19 126 13 386
-11 495 -92 415 -347 675 -831 850 -132 48 -259 82 -580 155 -148 34 -323 79
-387 101 -432 140 -597 325 -598 667 0 229 83 418 233 529 177 130 378 185
677 184 311 0 508 -54 725 -197 86 -57 255 -213 326 -302 l34 -43 198 145
c109 80 198 148 198 153 -1 16 -95 135 -168 213 -277 294 -630 460 -1068 500
-103 9 -346 11 -425 3z"/>
<path d="M7650 17545 l0 -235 700 0 700 0 0 -1975 0 -1975 270 0 270 0 0 1975
0 1975 700 0 700 0 0 235 0 235 -1670 0 -1670 0 0 -235z"/>
<path d="M12282 16242 l-922 -1538 0 -237 0 -237 1065 0 1065 0 0 -435 0 -435
255 0 255 0 0 435 0 435 320 0 320 0 0 225 0 225 -320 0 -320 0 0 1550 0 1550
-398 0 -398 0 -922 -1538z m1208 -217 l0 -1345 -810 0 c-691 0 -810 2 -803 14
197 343 1592 2676 1601 2676 9 0 12 -276 12 -1345z"/>
<path d="M19180 15570 l0 -2210 793 0 c959 0 1046 6 1322 98 648 214 1034 760
1152 1632 23 170 26 776 5 930 -64 468 -167 775 -358 1063 -91 138 -282 329
-420 420 -213 141 -468 231 -754 267 -53 6 -395 10 -912 10 l-828 0 0 -2210z
m1670 1725 c604 -81 991 -533 1039 -1215 14 -189 14 -836 0 -1014 -48 -641
-375 -1067 -919 -1196 -128 -30 -369 -41 -835 -38 l-420 3 -3 1738 -2 1737
517 0 c390 0 544 -4 623 -15z"/>
<path d="M9820 9894 c-40 -16 -40 -11 -40 -750 0 -620 2 -715 15 -728 30 -29
195 -33 247 -5 17 9 18 43 18 733 0 660 -1 725 -17 737 -17 14 -193 24 -223
13z"/>
<path d="M18680 9894 c-40 -16 -40 -11 -40 -750 0 -620 2 -715 15 -728 30 -29
195 -33 247 -5 17 9 18 43 18 733 0 660 -1 725 -17 737 -17 14 -193 24 -223
13z"/>
<path d="M19220 9893 c-40 -14 -40 -10 -40 -749 0 -620 2 -715 15 -728 19 -19
112 -30 177 -22 94 13 87 -7 90 278 l3 252 159 -252 c88 -139 169 -258 180
-265 13 -7 64 -12 132 -12 128 0 150 9 140 59 -3 16 -79 142 -168 280 -89 138
-162 258 -162 267 -1 10 58 83 129 165 72 81 138 159 147 173 24 35 23 78 -1
91 -26 13 -214 13 -244 -1 -14 -6 -89 -98 -168 -205 l-144 -194 -5 422 -5 422
-25 13 c-25 13 -180 17 -210 6z"/>
<path d="M6357 9859 c-57 -9 -82 -28 -98 -77 -13 -41 -7 -130 12 -160 22 -36
72 -47 186 -43 31 1 51 9 74 29 27 24 32 36 36 93 11 133 -54 182 -210 158z"/>
<path d="M12227 9859 c-57 -9 -82 -28 -98 -77 -13 -41 -7 -130 12 -160 22 -36
72 -47 186 -43 31 1 51 9 74 29 27 24 32 36 36 93 11 133 -54 182 -210 158z"/>
<path d="M20327 9859 c-57 -9 -82 -28 -98 -77 -13 -41 -7 -130 12 -160 22 -36
72 -47 186 -43 31 1 51 9 74 29 27 24 32 36 36 93 11 133 -54 182 -210 158z"/>
<path d="M5508 9805 c-202 -50 -318 -191 -318 -390 0 -130 49 -234 145 -307
27 -20 121 -73 210 -117 179 -89 218 -121 230 -190 10 -60 -25 -128 -84 -160
-93 -51 -251 -35 -389 39 -121 66 -137 55 -136 -87 1 -90 16 -114 92 -151 150
-75 378 -86 542 -25 54 20 137 72 167 104 113 123 143 318 73 467 -49 103
-138 172 -335 258 -154 68 -209 115 -220 190 -13 89 61 154 175 154 80 0 123
-11 222 -57 42 -20 84 -33 92 -30 34 13 34 190 0 228 -63 70 -315 110 -466 74z"/>
<path d="M11484 9691 c-54 -14 -54 -15 -54 -137 l0 -114 -64 0 c-84 0 -91 -9
-91 -115 0 -106 7 -115 90 -115 l63 0 4 -312 c3 -275 6 -318 22 -353 29 -65
64 -104 119 -133 48 -25 61 -27 172 -27 97 0 127 4 158 19 44 22 52 44 51 139
-1 91 -11 102 -83 80 -44 -12 -61 -13 -93 -4 -66 20 -71 44 -76 339 l-4 252
110 0 c84 0 114 4 125 15 33 32 29 185 -5 206 -7 5 -61 9 -120 9 l-108 0 0
114 c0 84 -4 116 -14 125 -17 14 -160 23 -202 12z"/>
<path d="M15644 9691 c-54 -14 -54 -15 -54 -137 l0 -114 -64 0 c-84 0 -91 -9
-91 -115 0 -106 7 -115 90 -115 l63 0 4 -312 c3 -275 6 -318 22 -353 29 -65
64 -104 119 -133 48 -25 61 -27 172 -27 97 0 127 4 158 19 44 22 52 44 51 139
-1 91 -11 102 -83 80 -44 -12 -61 -13 -93 -4 -66 20 -71 44 -76 339 l-4 252
110 0 c84 0 114 4 125 15 33 32 29 185 -5 206 -7 5 -61 9 -120 9 l-108 0 0
114 c0 84 -4 116 -14 125 -17 14 -160 23 -202 12z"/>
<path d="M20874 9691 c-54 -14 -54 -15 -54 -137 l0 -114 -64 0 c-84 0 -91 -9
-91 -115 0 -106 7 -115 90 -115 l63 0 4 -312 c3 -275 6 -318 22 -353 29 -65
64 -104 119 -133 48 -25 61 -27 172 -27 97 0 127 4 158 19 44 22 52 44 51 139
-1 91 -11 102 -83 80 -44 -12 -61 -13 -93 -4 -66 20 -71 44 -76 339 l-4 252
110 0 c84 0 114 4 125 15 33 32 29 185 -5 206 -7 5 -61 9 -120 9 l-108 0 0
114 c0 84 -4 116 -14 125 -17 14 -160 23 -202 12z"/>
<path d="M7263 9446 c-56 -18 -108 -51 -165 -105 l-48 -44 0 61 c0 76 -8 82
-124 82 -64 0 -88 -4 -100 -16 -14 -14 -16 -73 -16 -504 0 -421 2 -491 15
-504 19 -19 112 -30 177 -22 96 13 88 -17 88 356 l0 329 54 56 c84 86 152 105
217 62 19 -12 43 -40 54 -62 19 -37 20 -63 23 -377 4 -382 -4 -351 90 -364 65
-8 158 3 177 22 13 13 15 65 15 340 l0 325 46 49 c109 116 224 117 277 2 21
-45 22 -64 25 -379 3 -287 6 -334 19 -345 23 -19 214 -18 236 1 15 12 17 51
17 371 0 200 -4 381 -10 411 -21 110 -79 191 -173 241 -35 19 -58 23 -142 23
-125 0 -170 -16 -273 -98 -51 -41 -77 -56 -80 -47 -11 32 -86 99 -135 121 -64
28 -200 36 -264 15z"/>
<path d="M10548 9446 c-89 -20 -176 -56 -208 -86 -27 -26 -30 -34 -30 -95 0
-117 21 -129 129 -80 110 49 193 68 270 62 104 -8 151 -61 151 -169 l0 -58
-92 0 c-193 0 -345 -41 -426 -115 -65 -58 -87 -114 -86 -215 1 -96 20 -152 73
-213 65 -74 208 -114 342 -95 64 8 162 53 193 87 26 28 36 26 36 -7 0 -57 19
-67 120 -67 80 0 94 3 107 20 22 30 13 746 -10 821 -32 99 -102 169 -200 200
-69 22 -291 28 -369 10z m312 -685 l0 -79 -39 -35 c-49 -44 -75 -58 -126 -68
-105 -20 -186 54 -164 149 17 77 87 110 237 111 l92 1 0 -79z"/>
<path d="M12993 9446 c-83 -20 -164 -66 -224 -125 -99 -100 -142 -226 -141
-416 1 -199 41 -314 140 -407 93 -87 188 -119 357 -119 125 -1 184 11 271 53
189 91 287 318 255 590 -28 240 -135 376 -333 423 -76 18 -252 18 -325 1z
m242 -225 c50 -23 78 -53 107 -116 20 -44 23 -65 23 -185 0 -130 -1 -137 -30
-195 -40 -80 -92 -117 -174 -123 -176 -13 -265 119 -248 367 10 137 63 227
152 259 47 17 126 13 170 -7z"/>
<path d="M14325 9447 c-66 -22 -118 -53 -173 -102 l-52 -47 0 61 c0 75 -9 81
-124 81 -64 0 -88 -4 -100 -16 -14 -14 -16 -73 -16 -504 0 -421 2 -491 15
-504 19 -19 112 -30 177 -22 96 13 88 -17 88 355 l0 329 55 55 c115 115 230
114 287 -1 22 -46 23 -56 26 -379 3 -288 6 -333 19 -345 23 -19 214 -18 237 1
16 13 17 46 14 405 l-3 391 -31 65 c-37 77 -87 130 -152 161 -58 28 -203 37
-267 16z"/>
<path d="M16593 9446 c-83 -20 -164 -66 -224 -125 -99 -100 -142 -226 -141
-416 1 -199 41 -314 140 -407 93 -87 188 -119 357 -119 125 -1 184 11 271 53
189 91 287 318 255 590 -28 240 -135 376 -333 423 -76 18 -252 18 -325 1z
m242 -225 c50 -23 78 -53 107 -116 20 -44 23 -65 23 -185 0 -130 -1 -137 -30
-195 -40 -80 -92 -117 -174 -123 -176 -13 -265 119 -248 367 10 137 63 227
152 259 47 17 126 13 170 -7z"/>
<path d="M17773 9446 c-83 -20 -164 -66 -224 -125 -99 -100 -142 -226 -141
-416 1 -199 41 -314 140 -407 93 -87 188 -119 357 -119 125 -1 184 11 271 53
189 91 287 318 255 590 -28 240 -135 376 -333 423 -76 18 -252 18 -325 1z
m242 -225 c50 -23 78 -53 107 -116 20 -44 23 -65 23 -185 0 -130 -1 -137 -30
-195 -40 -80 -92 -117 -174 -123 -176 -13 -265 119 -248 367 10 137 63 227
152 259 47 17 126 13 170 -7z"/>
<path d="M6292 9424 l-22 -15 0 -489 c0 -421 2 -491 15 -504 30 -29 195 -33
247 -5 17 9 18 36 18 504 l0 494 -22 15 c-17 12 -48 16 -118 16 -70 0 -101 -4
-118 -16z"/>
<path d="M8616 9427 c-16 -12 -17 -41 -14 -402 4 -426 5 -430 66 -520 33 -48
108 -100 164 -116 66 -17 187 -13 244 9 58 21 124 65 172 112 l32 32 0 -60 c0
-80 9 -87 122 -87 77 0 92 3 104 19 12 17 14 103 14 508 l0 488 -25 16 c-33
22 -231 17 -245 -6 -6 -9 -10 -153 -10 -339 l0 -325 -56 -54 c-62 -60 -105
-82 -161 -82 -55 0 -100 32 -126 88 -21 45 -22 63 -25 377 -3 291 -5 331 -19
343 -23 17 -213 17 -237 -1z"/>
<path d="M12162 9424 l-22 -15 0 -489 c0 -421 2 -491 15 -504 30 -29 195 -33
247 -5 17 9 18 36 18 504 l0 494 -22 15 c-17 12 -48 16 -118 16 -70 0 -101 -4
-118 -16z"/>
<path d="M20262 9424 l-22 -15 0 -489 c0 -421 2 -491 15 -504 30 -29 195 -33
247 -5 17 9 18 36 18 504 l0 494 -22 15 c-17 12 -48 16 -118 16 -70 0 -101 -4
-118 -16z"/>
<path d="M12357 7260 c-96 -25 -172 -92 -202 -179 -9 -25 -21 -99 -27 -163
l-11 -118 -62 0 c-83 0 -90 -10 -90 -115 0 -106 7 -115 91 -115 l64 0 0 -389
c0 -333 2 -392 15 -405 30 -30 217 -33 252 -4 10 8 13 91 13 404 l0 394 94 0
c117 0 121 3 121 115 0 112 -3 115 -122 115 l-96 0 5 83 c8 138 46 177 154
155 75 -15 77 -15 91 12 13 26 16 108 4 150 -12 42 -60 61 -163 65 -51 3 -110
0 -131 -5z"/>
<path d="M13029 6802 c-171 -46 -288 -168 -335 -352 -25 -93 -22 -280 5 -384
26 -97 55 -148 119 -208 92 -86 188 -118 353 -120 59 0 131 5 160 12 181 42
304 163 355 350 21 78 24 274 5 363 -36 166 -139 287 -285 333 -79 25 -293 29
-377 6z m256 -221 c50 -23 78 -53 107 -116 20 -44 23 -65 23 -185 0 -130 -1
-137 -30 -195 -40 -80 -92 -117 -174 -123 -176 -13 -265 119 -248 367 10 137
63 227 152 259 47 17 126 13 170 -7z"/>
<path d="M14303 6799 c-24 -11 -67 -48 -98 -81 l-55 -59 0 60 c0 75 -9 81
-124 81 -64 0 -88 -4 -100 -16 -14 -14 -16 -73 -16 -504 0 -421 2 -491 15
-504 19 -19 112 -30 177 -22 95 13 88 -15 88 334 0 342 -5 317 74 400 68 72
103 83 190 60 69 -18 76 -8 76 121 0 58 -4 111 -8 118 -24 38 -153 45 -219 12z"/>
<path d="M10935 4617 c-67 -22 -101 -44 -138 -88 -48 -56 -66 -112 -79 -251
l-12 -118 -62 0 c-81 0 -89 -10 -89 -115 0 -106 7 -115 91 -115 l64 0 0 -389
c0 -333 2 -392 15 -405 30 -30 217 -33 252 -4 10 8 13 91 13 404 l0 394 94 0
c117 0 121 3 121 115 0 112 -3 115 -122 115 l-96 0 5 83 c8 138 46 177 154
155 75 -15 77 -15 91 12 13 26 16 108 4 150 -12 42 -60 61 -169 66 -64 3 -110
0 -137 -9z"/>
<path d="M6643 4581 c-76 -13 -110 -70 -100 -166 6 -63 22 -90 60 -106 37 -16
158 -15 196 0 38 16 61 65 61 129 0 66 -17 110 -49 126 -34 17 -115 25 -168
17z"/>
<path d="M10203 4581 c-76 -13 -110 -70 -100 -166 6 -63 22 -90 60 -106 37
-16 158 -15 196 0 38 16 61 65 61 129 0 66 -17 110 -49 126 -34 17 -115 25
-168 17z"/>
<path d="M11443 4581 c-76 -13 -110 -70 -100 -166 6 -63 22 -90 60 -106 37
-16 158 -15 196 0 38 16 61 65 61 129 0 66 -17 110 -49 126 -34 17 -115 25
-168 17z"/>
<path d="M14793 4581 c-76 -13 -110 -70 -100 -166 6 -63 22 -90 60 -106 37
-16 158 -15 196 0 38 16 61 65 61 129 0 66 -17 110 -49 126 -34 17 -115 25
-168 17z"/>
<path d="M4868 4525 c-156 -38 -264 -134 -303 -270 -25 -86 -17 -212 18 -288
45 -99 108 -149 309 -250 193 -96 231 -126 243 -196 5 -33 2 -51 -17 -89 -60
-122 -246 -135 -453 -32 -96 48 -122 51 -132 13 -15 -51 -8 -169 10 -197 22
-33 113 -79 201 -100 122 -31 312 -21 421 22 51 20 134 73 162 103 113 123
144 316 74 465 -50 107 -132 170 -343 264 -124 55 -176 93 -200 147 -33 75 -7
141 69 175 72 32 174 22 283 -26 112 -51 131 -51 143 -6 15 57 5 165 -18 191
-65 71 -313 111 -467 74z"/>
<path d="M13384 4506 c-17 -8 -34 -21 -38 -31 -3 -9 -6 -307 -6 -661 l0 -645
26 -25 25 -26 282 4 c248 4 292 8 362 26 237 64 379 208 441 447 25 98 26 360
1 460 -67 268 -256 421 -562 455 -137 15 -493 12 -531 -4z m486 -226 c123 -20
235 -102 281 -206 87 -195 52 -491 -72 -615 -78 -78 -177 -109 -351 -109 l-98
0 0 470 0 470 88 0 c48 0 116 -5 152 -10z"/>
<path d="M9465 4413 c-52 -8 -55 -16 -55 -139 l0 -114 -64 0 c-84 0 -91 -9
-91 -115 0 -106 7 -115 91 -115 l63 0 3 -312 c3 -277 6 -318 22 -353 29 -65
64 -104 119 -133 48 -25 61 -27 172 -27 97 0 127 4 158 19 44 22 52 44 51 139
-1 91 -11 102 -83 80 -44 -12 -61 -13 -93 -4 -64 20 -68 39 -68 336 l0 255
104 0 c80 0 108 4 120 15 32 32 32 168 -1 200 -11 11 -40 15 -119 15 l-104 0
0 104 c0 138 -6 146 -115 151 -44 2 -93 1 -110 -2z"/>
<path d="M5925 4166 c-168 -41 -287 -167 -331 -352 -20 -83 -22 -273 -5 -359
32 -152 129 -279 249 -326 79 -31 255 -38 338 -14 77 22 149 59 168 87 23 32
23 200 0 222 -17 18 -22 16 -102 -38 -90 -60 -181 -73 -260 -35 -85 42 -128
155 -120 319 9 176 70 269 182 278 78 6 114 -3 189 -48 80 -48 100 -50 117
-10 19 46 10 173 -15 201 -64 71 -270 109 -410 75z"/>
<path d="M7381 4164 c-167 -45 -282 -171 -326 -359 -9 -34 -15 -112 -15 -181
0 -295 106 -456 336 -510 182 -42 514 4 551 76 17 34 17 141 -1 165 -13 18
-18 19 -58 7 -169 -49 -202 -54 -298 -50 -87 3 -103 7 -146 33 -57 36 -91 95
-101 173 l-6 52 310 0 310 0 21 23 c19 20 22 35 22 115 0 107 -13 177 -46 248
-49 104 -140 179 -258 210 -66 18 -226 17 -295 -2z m216 -195 c64 -24 112
-100 113 -176 l0 -43 -196 0 -197 0 7 42 c11 70 55 139 105 165 48 25 120 30
168 12z"/>
<path d="M8637 4156 c-70 -29 -98 -47 -154 -99 l-43 -40 0 61 c0 76 -8 82
-124 82 -64 0 -88 -4 -100 -16 -14 -14 -16 -73 -16 -504 0 -421 2 -491 15
-504 19 -19 112 -30 177 -22 96 13 88 -17 88 355 l0 329 55 55 c115 115 230
114 287 -1 22 -46 23 -56 26 -379 3 -286 6 -334 19 -345 18 -14 179 -18 226
-5 l28 8 -3 397 -3 397 -31 65 c-63 131 -143 183 -294 188 -82 2 -103 -1 -153
-22z"/>
<path d="M12195 4166 c-168 -41 -287 -167 -331 -352 -20 -83 -22 -273 -5 -359
32 -152 129 -279 249 -326 79 -31 255 -38 338 -14 77 22 149 59 168 87 23 32
23 200 0 222 -17 18 -22 16 -102 -38 -90 -60 -181 -73 -260 -35 -85 42 -128
155 -120 319 9 176 70 269 182 278 78 6 114 -3 189 -48 80 -48 100 -50 117
-10 19 46 10 173 -15 201 -64 71 -270 109 -410 75z"/>
<path d="M15438 4166 c-73 -21 -150 -69 -185 -115 -62 -81 -79 -197 -43 -294
36 -97 107 -149 315 -233 85 -34 125 -70 125 -114 0 -46 -16 -69 -63 -91 -75
-34 -171 -22 -291 36 -49 24 -75 31 -86 25 -35 -19 -31 -170 5 -210 43 -48
232 -83 367 -68 108 11 178 40 242 99 69 63 96 128 96 232 0 89 -28 155 -88
209 -49 44 -93 68 -213 113 -106 41 -135 59 -155 96 -18 35 -10 70 22 100 20
19 39 24 94 27 72 4 108 -4 204 -46 57 -25 59 -26 73 -6 11 14 14 40 11 97 -4
91 -15 106 -101 133 -70 22 -266 28 -329 10z"/>
<path d="M16415 4166 c-168 -41 -287 -167 -331 -352 -20 -83 -22 -273 -5 -359
32 -152 129 -279 249 -326 79 -31 255 -38 338 -14 77 22 149 59 168 87 23 32
23 200 0 222 -17 18 -22 16 -102 -38 -90 -60 -181 -73 -260 -35 -85 42 -128
155 -120 319 9 176 70 269 182 278 78 6 114 -3 189 -48 80 -48 100 -50 117
-10 19 46 10 173 -15 201 -64 71 -270 109 -410 75z"/>
<path d="M17329 4162 c-127 -34 -240 -124 -293 -235 -43 -88 -59 -171 -59
-297 1 -191 36 -303 125 -396 91 -96 195 -134 369 -136 122 -1 188 12 277 54
174 81 274 291 257 538 -10 157 -30 222 -94 318 -40 61 -127 123 -205 148 -79
25 -293 29 -377 6z m256 -221 c51 -23 78 -53 107 -116 20 -44 23 -66 23 -185
0 -130 -1 -137 -30 -195 -40 -80 -92 -117 -174 -123 -176 -13 -265 119 -248
367 10 137 63 227 152 259 47 17 126 13 170 -7z"/>
<path d="M19521 4164 c-167 -45 -282 -171 -326 -359 -9 -34 -15 -112 -15 -181
0 -295 106 -456 336 -510 182 -42 514 4 551 76 17 34 17 141 -1 165 -13 18
-18 19 -58 7 -169 -49 -202 -54 -298 -50 -87 3 -103 7 -146 33 -57 36 -91 95
-101 173 l-6 52 310 0 310 0 21 23 c19 20 22 35 22 115 0 107 -13 177 -46 248
-49 104 -140 179 -258 210 -66 18 -226 17 -295 -2z m216 -195 c64 -24 112
-100 113 -176 l0 -43 -196 0 -197 0 7 42 c11 70 55 139 105 165 48 25 120 30
168 12z"/>
<path d="M20723 4159 c-24 -11 -67 -48 -98 -81 l-55 -59 0 60 c0 75 -9 81
-124 81 -64 0 -88 -4 -100 -16 -14 -14 -16 -73 -16 -504 0 -421 2 -491 15
-504 19 -19 112 -30 177 -22 95 13 88 -15 88 334 0 342 -5 317 74 400 68 72
103 83 190 60 69 -18 76 -8 76 121 0 58 -4 111 -8 118 -24 38 -153 45 -219 12z"/>
<path d="M6582 4144 l-22 -15 0 -489 c0 -421 2 -491 15 -504 30 -29 195 -33
247 -5 17 9 18 36 18 504 l0 494 -22 15 c-17 12 -48 16 -118 16 -70 0 -101 -4
-118 -16z"/>
<path d="M10142 4144 l-22 -15 0 -489 c0 -421 2 -491 15 -504 30 -29 195 -33
247 -5 17 9 18 36 18 504 l0 494 -22 15 c-17 12 -48 16 -118 16 -70 0 -101 -4
-118 -16z"/>
<path d="M11382 4144 l-22 -15 0 -489 c0 -421 2 -491 15 -504 30 -29 195 -33
247 -5 17 9 18 36 18 504 l0 494 -22 15 c-17 12 -48 16 -118 16 -70 0 -101 -4
-118 -16z"/>
<path d="M14732 4144 l-22 -15 0 -489 c0 -421 2 -491 15 -504 30 -29 195 -33
247 -5 17 9 18 36 18 504 l0 494 -22 15 c-17 12 -48 16 -118 16 -70 0 -101 -4
-118 -16z"/>
<path d="M18115 4146 c-14 -10 -17 -21 -12 -48 3 -19 72 -237 153 -484 99
-300 155 -456 170 -471 15 -15 39 -23 89 -28 81 -9 226 0 254 14 15 8 58 126
175 479 86 258 156 482 156 500 0 21 -6 35 -19 42 -28 15 -213 13 -234 -2 -9
-8 -59 -153 -123 -363 -58 -192 -109 -353 -113 -358 -4 -4 -40 100 -80 230
-135 437 -151 482 -171 493 -29 15 -222 13 -245 -4z"/>
<path d="M21036 4144 c-9 -8 -16 -25 -16 -36 0 -31 337 -929 361 -962 l22 -29
-67 -166 c-36 -91 -66 -172 -66 -178 0 -7 11 -20 25 -29 33 -22 220 -16 257 8
19 13 64 135 246 670 122 360 222 666 222 679 0 49 -12 54 -127 57 -78 2 -113
0 -124 -10 -10 -7 -61 -152 -120 -340 -56 -181 -105 -328 -109 -328 -3 0 -57
145 -119 323 -62 177 -120 330 -129 340 -21 24 -232 26 -256 1z"/>
</g>
</svg>
